<mxfile host="app.diagrams.net" modified="2023-05-23T10:25:05.997Z" agent="Mozilla/5.0 (Windows NT 10.0; Win64; x64) AppleWebKit/537.36 (KHTML, like Gecko) Chrome/113.0.0.0 Safari/537.36" version="21.3.2" etag="dNez6Aad22pLo785BrXs" type="github">
  <diagram name="第 1 页" id="0AUaaIVt-kkO4RMALrJo">
    <mxGraphModel>
      <root>
        <mxCell id="0" />
        <mxCell id="1" parent="0" />
      </root>
    </mxGraphModel>
  </diagram>
</mxfile>
